P3
74 11
255
 0 0 0  0 0 0  127 127 127  127 127 127  127 127 127  127 127 127  127 127 127  127 127 127  127 127 127  127 127 127  127 127 127  127 127 127  127 127 127  127 127 127  127 127 127  127 127 127  127 127 127  127 127 127  127 127 127  127 127 127  127 127 127  127 127 127  127 127 127  0 0 0  0 0 0  0 0 0  127 127 127  127 127 127  127 127 127  0 0 0  0 0 0  0 0 0  64 64 64  64 64 64  64 64 64  64 64 64  64 64 64  64 64 64  64 64 64  64 64 64  64 64 64  0 0 0  32 32 32  64 64 64  64 64 64  32 32 32  0 0 0  64 64 64  64 64 64  64 64 64  0 0 0  0 0 0  127 127 127  127 127 127  127 127 127  0 0 0  0 0 0  0 0 0  0 0 0  64 64 64  127 127 127  127 127 127  64 64 64  0 0 0  32 32 32  64 64 64  64 64 64  64 64 64  64 64 64  64 64 64  64 64 64  64 64 64  0 0 0  0 0 0  204 204 204  
 204 204 204  110 110 110  110 110 110  110 110 110  110 110 110  110 110 110  0 0 0  0 0 0  126 126 126  126 126 126  126 126 126  126 126 126  96 96 96  9 9 9  120 120 120  110 110 110  110 110 110  110 110 110  110 110 110  110 110 110  110 110 110  110 110 110  110 110 110  110 110 110  126 126 126  126 126 126  0 0 0  0 0 0  0 0 0  0 0 0  0 0 0  0 0 0  0 0 0  49 49 49  25 25 25  46 46 46  26 26 26  0 0 0  70 70 70  33 33 33  29 29 29  46 46 46  127 127 127  64 64 64  32 32 32  127 127 127  127 127 127  127 127 127  127 127 127  127 127 127  127 127 127  127 127 127  127 127 127  127 127 127  127 127 127  64 64 64  64 64 64  96 96 96  127 127 127  64 64 64  32 32 32  0 0 0  0 0 0  64 64 64  127 127 127  127 127 127  64 64 64  127 127 127  127 127 127  127 127 127  0 0 0  64 64 64  127 127 127  127 127 127  
 127 127 127  204 204 204  204 204 204  110 110 110  110 110 110  110 110 110  110 110 110  110 110 110  110 110 110  110 110 110  110 110 110  110 110 110  110 110 110  110 110 110  110 110 110  110 110 110  110 110 110  110 110 110  110 110 110  110 110 110  110 110 110  110 110 110  110 110 110  110 110 110  110 110 110  110 110 110  0 0 0  0 0 0  0 0 0  0 0 0  0 0 0  0 0 0  0 0 0  0 0 0  0 0 0  50 50 50  25 25 25  26 26 26  24 24 24  27 27 27  28 28 28  48 48 48  28 28 28  23 23 23  116 116 116  0 0 0  0 0 0  0 0 0  40 40 40  13 13 13  120 120 120  119 119 119  116 116 116  0 0 0  0 0 0  124 124 124  63 63 63  0 0 0  0 0 0  48 48 48  67 67 67  61 61 61  116 116 116  116 116 116  0 0 0  0 0 0  32 32 32  0 0 0  40 40 40  0 0 0  40 40 40  0 0 0  36 36 36  0 0 0  
 34 34 34  0 0 0  34 34 34  204 204 204  204 204 204  0 0 0  0 0 0  0 0 0  0 0 0  0 0 0  110 110 110  110 110 110  110 110 110  110 110 110  110 110 110  110 110 110  110 110 110  110 110 110  110 110 110  110 110 110  110 110 110  110 110 110  110 110 110  110 110 110  110 110 110  110 110 110  110 110 110  110 110 110  0 0 0  0 0 0  0 0 0  0 0 0  0 0 0  0 0 0  0 0 0  0 0 0  0 0 0  47 47 47  49 49 49  55 55 55  54 54 54  56 56 56  57 57 57  50 50 50  57 57 57  57 57 57  0 0 0  0 0 0  54 54 54  58 58 58  58 58 58  55 55 55  0 0 0  0 0 0  0 0 0  0 0 0  0 0 0  0 0 0  0 0 0  120 120 120  66 66 66  84 84 84  55 55 55  124 124 124  63 63 63  0 0 0  0 0 0  0 0 0  57 57 57  0 0 0  55 55 55  0 0 0  51 51 51  0 0 0  
 58 58 58  0 0 0  16 16 16  0 0 0  43 43 43  204 204 204  204 204 204  110 110 110  110 110 110  110 110 110  110 110 110  110 110 110  110 110 110  110 110 110  110 110 110  110 110 110  110 110 110  110 110 110  110 110 110  110 110 110  110 110 110  110 110 110  110 110 110  110 110 110  110 110 110  110 110 110  110 110 110  110 110 110  110 110 110  110 110 110  0 0 0  0 0 0  0 0 0  0 0 0  0 0 0  0 0 0  0 0 0  0 0 0  0 0 0  55 55 55  54 54 54  56 56 56  57 57 57  50 50 50  57 57 57  57 57 57  52 52 52  55 55 55  24 24 24  83 83 83  7 7 7  14 14 14  123 123 123  63 63 63  0 0 0  0 0 0  64 64 64  91 91 91  7 7 7  49 49 49  46 46 46  58 58 58  26 26 26  120 120 120  89 89 89  66 66 66  35 35 35  69 69 69  51 51 51  47 47 47  54 54 54  0 0 0  54 54 54  0 0 0  
 55 55 55  0 0 0  55 55 55  0 0 0  27 27 27  0 0 0  46 46 46  204 204 204  204 204 204  110 110 110  110 110 110  110 110 110  110 110 110  110 110 110  110 110 110  110 110 110  110 110 110  110 110 110  110 110 110  110 110 110  110 110 110  110 110 110  110 110 110  110 110 110  110 110 110  110 110 110  110 110 110  110 110 110  110 110 110  110 110 110  110 110 110  110 110 110  0 0 0  0 0 0  0 0 0  0 0 0  0 0 0  0 0 0  1 1 1  21 21 21  40 40 40  22 22 22  118 118 118  116 116 116  0 0 0  0 0 0  0 0 0  40 40 40  30 30 30  118 118 118  0 0 0  0 0 0  0 0 0  0 0 0  0 0 0  0 0 0  0 0 0  0 0 0  0 0 0  0 0 0  0 0 0  58 58 58  26 26 26  120 120 120  89 89 89  66 66 66  35 35 35  69 69 69  51 51 51  47 47 47  9 9 9  100 100 100  0 0 0  0 0 0  
 0 0 0  0 0 0  0 0 0  0 0 0  100 100 100  0 0 0  0 0 0  0 0 0  126 126 126  204 204 204  204 204 204  110 110 110  110 110 110  110 110 110  110 110 110  110 110 110  110 110 110  110 110 110  110 110 110  110 110 110  110 110 110  110 110 110  110 110 110  110 110 110  110 110 110  110 110 110  110 110 110  110 110 110  110 110 110  110 110 110  110 110 110  110 110 110  110 110 110  110 110 110  0 0 0  0 0 0  0 0 0  0 0 0  0 0 0  0 0 0  0 0 0  0 0 0  0 0 0  116 116 116  0 0 0  0 0 0  0 0 0  0 0 0  0 0 0  0 0 0  0 0 0  0 0 0  0 0 0  0 0 0  0 0 0  0 0 0  0 0 0  0 0 0  0 0 0  0 0 0  0 0 0  0 0 0  0 0 0  0 0 0  0 0 0  0 0 0  0 0 0  0 0 0  0 0 0  0 0 0  0 0 0  0 0 0  0 0 0  0 0 0  
 0 0 0  0 0 0  0 0 0  0 0 0  0 0 0  0 0 0  0 0 0  0 0 0  0 0 0  0 0 0  0 0 0  204 204 204  204 204 204  110 110 110  110 110 110  110 110 110  110 110 110  110 110 110  110 110 110  110 110 110  110 110 110  110 110 110  110 110 110  110 110 110  110 110 110  110 110 110  110 110 110  110 110 110  110 110 110  110 110 110  110 110 110  110 110 110  110 110 110  110 110 110  110 110 110  110 110 110  0 0 0  0 0 0  4 4 4  21 21 21  44 44 44  25 25 25  0 0 0  25 25 25  0 0 0  110 110 110  110 110 110  110 110 110  110 110 110  110 110 110  110 110 110  110 110 110  110 110 110  110 110 110  0 0 0  0 0 0  119 119 119  52 52 52  86 86 86  25 25 25  0 0 0  2 2 2  0 0 0  73 73 73  43 43 43  0 0 0  0 0 0  0 0 0  0 0 0  0 0 0  0 0 0  0 0 0  0 0 0  0 0 0  
 0 0 0  0 0 0  0 0 0  0 0 0  67 67 67  52 52 52  90 90 90  25 25 25  0 0 0  3 3 3  0 0 0  72 72 72  96 96 96  204 204 204  204 204 204  110 110 110  110 110 110  110 110 110  110 110 110  110 110 110  110 110 110  110 110 110  110 110 110  110 110 110  110 110 110  110 110 110  110 110 110  110 110 110  110 110 110  110 110 110  110 110 110  110 110 110  110 110 110  110 110 110  110 110 110  110 110 110  110 110 110  110 110 110  110 110 110  110 110 110  110 110 110  110 110 110  110 110 110  110 110 110  110 110 110  110 110 110  110 110 110  110 110 110  110 110 110  110 110 110  110 110 110  110 110 110  110 110 110  110 110 110  110 110 110  110 110 110  20 20 20  0 0 0  46 46 46  0 0 0  38 38 38  0 0 0  52 52 52  0 0 0  49 49 49  0 0 0  57 57 57  0 0 0  0 0 0  0 0 0  0 0 0  0 0 0  0 0 0  0 0 0  
 0 0 0  0 0 0  0 0 0  0 0 0  32 32 32  94 94 94  33 33 33  118 118 118  116 116 116  0 0 0  0 0 0  0 0 0  80 80 80  58 58 58  107 107 107  204 204 204  204 204 204  39 39 39  25 25 25  0 0 0  47 47 47  0 0 0  64 64 64  110 110 110  110 110 110  110 110 110  110 110 110  110 110 110  110 110 110  110 110 110  110 110 110  110 110 110  110 110 110  110 110 110  110 110 110  110 110 110  110 110 110  110 110 110  110 110 110  110 110 110  110 110 110  110 110 110  110 110 110  110 110 110  110 110 110  110 110 110  110 110 110  110 110 110  110 110 110  110 110 110  110 110 110  110 110 110  110 110 110  110 110 110  110 110 110  110 110 110  110 110 110  110 110 110  57 57 57  0 0 0  52 52 52  0 0 0  57 57 57  0 0 0  50 50 50  0 0 0  46 46 46  0 0 0  33 33 33  110 110 110  110 110 110  110 110 110  110 110 110  110 110 110  
 110 110 110  110 110 110  110 110 110  110 110 110  110 110 110  110 110 110  107 107 107  119 119 119  116 116 116  0 0 0  0 0 0  0 0 0  48 48 48  55 55 55  107 107 107  119 119 119  116 116 116  204 204 204  204 204 204  110 110 110  110 110 110  110 110 110  110 110 110  112 112 112  74 74 74  58 58 58  25 25 25  0 0 0  47 47 47  0 0 0  64 64 64  110 110 110  110 110 110  110 110 110  110 110 110  110 110 110  110 110 110  110 110 110  110 110 110  110 110 110  110 110 110  110 110 110  110 110 110  110 110 110  110 110 110  110 110 110  110 110 110  110 110 110  110 110 110  110 110 110  110 110 110  110 110 110  110 110 110  110 110 110  110 110 110  110 110 110  110 110 110  110 110 110  110 110 110  110 110 110  124 124 124  63 63 63  0 0 0  0 0 0  64 64 64  0 0 0  0 0 0  0 0 0  1 1 1  0 0 0  0 0 0  110 110 110  110 110 110 